# xmcd
#
# Track frame offsets:
#	150
#	12784
#	24492
#	39299
#	53421
#	69227
#	88414
#	101887
#	112354
#	127168
#	142004
#	160392
#	172954
#	183061
#	195048
#	211532
#	221992
#	233977
#	243282
#	259938
#
# Disc length: 3603
#
# Revision: 1
# Processed by: cddbd v1.5.1PL0 Copyright (c) Steve Scherf et al.
# Submitted via: EasyCDDAExtractor 4.6.0.1
# Normalized: r0:DSETVAR1
#
DISCID=160e1114
DTITLE=Various Artist - Superhits Of Country CD 6
DYEAR=1900
DGENRE=
TTITLE0=Johnny Cash - I Walk The Line
TTITLE1=Patsy Cline - Walkin' After Midnight
TTITLE2=Eddie Rabbitt - Drivin' My Life Away
TTITLE3=Lee Greenwood - Dixie Road
TTITLE4=Becky Hobbs - The Boots I Came To Town In
TTITLE5=John Denver - Rocky Mountain High
TTITLE6=Tanya Tucker - Jamestown Ferry
TTITLE7=George Hamilton IV - Abilene
TTITLE8=Jeannie C. Riley - Harper Valley PTA
TTITLE9=Ernest Tubbs and George Jones - Filipino Baby
TTITLE10=Crystal Gayle - Half The Way
TTITLE11=Barbara Mandrell - The Midnight Oil
TTITLE12=Boxcar Willie - King Of The Road
TTITLE13=Charlie Rich - Rollin' With The Flow
TTITLE14=Charly Pride - Me And Bobby McGee (Live)
TTITLE15=Freddy Weller - The Roadmaster
TTITLE16=Boxcar Willie - Six Days On The Road
TTITLE17=Roger Miller - Chung-A-Lug
TTITLE18=Cal Smith - Country Bumpkin
TTITLE19=Leroy Van Dyke - Walk On By
EXTD=
EXTT0=
EXTT1=
EXTT2=
EXTT3=
EXTT4=
EXTT5=
EXTT6=
EXTT7=
EXTT8=
EXTT9=
EXTT10=
EXTT11=
EXTT12=
EXTT13=
EXTT14=
EXTT15=
EXTT16=
EXTT17=
EXTT18=
EXTT19=
PLAYORDER=
